# xmcd
#
# Track frame offsets:
#	150
#	15007
#	28772
#	44100
#	57995
#	70867
#	83735
#	96962
#	108850
#	120975
#	133060
#	147702
#	161020
#	175985
#	191392
#	205200
#	218270
#	232307
#	243415
#	255150
#	268657
#
# Disc length: 3747 seconds
#
# Revision: 1
# Processed by: cddbd v1.5.2PL0 Copyright (c) Steve Scherf et al.
# Submitted via: audiograbber 1.83.01
#
DISCID=260ea115
DTITLE=Various Artist - Savoy Blues - 1
DYEAR=2003
DGENRE=Blues
TTITLE0=Hot Lips Page - Uncle Sam's Blues
TTITLE1=Miss Rhapsody (Viola Wells) - Groovin' The Blues
TTITLE2=Hot Lips Page - Lips Blues
TTITLE3=Albinia Jones with Don Byas's Swing Seven - Evil Gal Blues
TTITLE4=Albinia Jones with Don Byas's Swing Seven - Salty Papa Blues
TTITLE5=Billy Eckstine - All I Sing Is Blues
TTITLE6=Gatemouth Moore with Budd Johnson Orchestra - I'm Going Way Back Home
TTITLE7=Gatemouth Moore with Budd Johnson Orchestra - Walking My Blues Away
TTITLE8=Pete Johnson - Man Wanted
TTITLE9=Joe Turner - I Got My Discharge Papers
TTITLE10=Joe Turner - My Gal's A Jockey
TTITLE11=Billy Eckstine - Tell Me Pretty Baby
TTITLE12=Tell Me Pretty Baby - Jelly, Jelly
TTITLE13=Joe Turner - I'm Still In The Dark
TTITLE14=Gatemouth Moore - Love Doctor Blues
TTITLE15=Brownie McGhee and Champion Jack Dupree - Auto Mechanic Blues
TTITLE16=Johnny Otis - Midnight At The Barrelhouse
TTITLE17=Doc Pomus - Doc's Boogie
TTITLE18=Doc Pomus - Fruity Woman
TTITLE19=Joe Turner - Lucille, Lucille
TTITLE20=Joe Turner - Hollywood Bed
EXTD=
EXTT0=
EXTT1=
EXTT2=
EXTT3=
EXTT4=
EXTT5=
EXTT6=
EXTT7=
EXTT8=
EXTT9=
EXTT10=
EXTT11=
EXTT12=
EXTT13=
EXTT14=
EXTT15=
EXTT16=
EXTT17=
EXTT18=
EXTT19=
EXTT20=
PLAYORDER=
